<svg xmlns="http://www.w3.org/2000/svg" width="1106" height="720" viewBox="0 0 1106 720" version="1.1"><path d="M 925.500 154.501 C 905.506 159.977, 892.090 170.960, 885.063 187.604 C 875.152 211.079, 881.194 241.424, 899.395 259.592 C 910.583 270.760, 920.961 274.945, 937.500 274.958 C 961.619 274.977, 982.467 263.984, 990.935 246.783 C 995.718 237.068, 998.674 224, 996.089 224 C 995.133 224, 974.773 228.688, 971.750 229.604 C 970.788 229.896, 970 230.852, 970 231.730 C 970 234.881, 964.865 241.997, 960.348 245.105 C 947.909 253.663, 930.242 252.996, 922.368 243.672 C 919.423 240.184, 915.025 231.389, 915.010 228.956 C 914.999 227.244, 913.709 227.587, 964 215.930 C 981.325 211.914, 995.666 208.508, 995.869 208.362 C 996.957 207.575, 992.099 192.407, 988.397 185.028 C 980.851 169.989, 968.973 159.234, 955.217 154.985 C 947.580 152.626, 933.200 152.392, 925.500 154.501 M 925.581 179.014 C 919.537 181.374, 914.358 186.150, 911.866 191.663 C 910.021 195.742, 908.878 206.209, 910.139 207.471 C 910.653 207.987, 955.127 198.154, 959.780 196.496 C 962.979 195.356, 952.791 181.552, 946.575 178.603 C 941.935 176.401, 931.764 176.600, 925.581 179.014 M 810.059 181.492 C 796.307 184.610, 785.923 192.283, 780.237 203.528 C 778.628 206.710, 777.084 208.905, 776.805 208.407 C 776.526 207.908, 775.711 204.646, 774.993 201.159 C 774.275 197.671, 773.106 194.594, 772.394 194.321 C 771.683 194.048, 765.007 195.264, 757.559 197.022 C 744.904 200.011, 744.052 200.360, 744.546 202.360 C 744.838 203.537, 748.546 219.289, 752.788 237.366 L 760.500 270.231 767.682 270.515 C 771.632 270.670, 775.339 271.091, 775.919 271.450 C 776.499 271.809, 778.268 273.992, 779.850 276.301 C 782.813 280.629, 788 299.426, 788 305.839 C 788 308.812, 788.194 308.994, 790.750 308.419 C 796.917 307.030, 801 305.904, 801 305.593 C 801 305.412, 797.882 292.038, 794.071 275.874 C 790.261 259.710, 786.608 243.412, 785.954 239.657 C 782.548 220.100, 791.615 208, 809.675 208 C 818.678 208, 824.083 212.243, 827.808 222.234 C 829.313 226.272, 842.010 278.309, 844.776 291.779 C 845.093 293.320, 845.771 293.898, 846.872 293.565 C 850.774 292.386, 858.108 291.039, 865.947 290.061 C 870.592 289.481, 874.770 288.630, 875.231 288.169 C 875.692 287.708, 874.454 280.394, 872.480 271.915 C 864.397 237.193, 861.759 226.026, 859.407 216.587 C 855.175 199.599, 846.945 187.075, 837.173 182.752 C 831.251 180.133, 818.640 179.546, 810.059 181.492 M 555.250 208.328 C 544.643 210.785, 542 211.737, 542 213.099 C 542 214.035, 543.575 221.384, 545.500 229.430 C 547.425 237.476, 549 244.445, 549 244.918 C 549 245.390, 544.950 246.777, 540 248 C 533.920 249.502, 531 250.686, 531 251.648 C 531 255.123, 535.357 269.999, 536.373 269.992 C 536.993 269.988, 541.098 269.123, 545.496 268.071 C 549.893 267.019, 553.668 266.334, 553.883 266.550 C 554.099 266.766, 558.003 282.885, 562.560 302.370 C 567.116 321.855, 571.604 339.305, 572.534 341.149 C 577.696 351.385, 584.129 354.092, 600.500 352.918 C 609.910 352.244, 626.826 348.508, 628.627 346.707 C 629.570 345.763, 623.642 322.952, 622.566 323.383 C 621.980 323.618, 618.350 324.572, 614.500 325.503 C 606.626 327.408, 603.184 326.737, 600.601 322.794 C 598.619 319.770, 584.620 259.946, 585.680 259.036 C 586.131 258.649, 590.965 257.355, 596.423 256.160 C 601.880 254.966, 606.543 253.790, 606.785 253.548 C 607.168 253.165, 604.769 240.688, 603.363 235.750 C 602.720 233.489, 600.742 233.545, 590.489 236.117 C 585.847 237.281, 581.461 238.007, 580.742 237.731 C 579.992 237.444, 578.213 231.748, 576.573 224.384 C 572.449 205.871, 572.155 204.981, 570.203 205.129 C 569.266 205.200, 562.538 206.639, 555.250 208.328 M 684 212.029 C 674.234 213.006, 664.735 215.288, 655.480 218.882 C 635.821 226.515, 625.283 238.915, 624.207 255.677 C 623.847 261.284, 624.057 263.079, 625.120 263.469 C 625.879 263.747, 632.800 262.493, 640.500 260.682 L 654.500 257.389 655.142 252.184 C 656.201 243.601, 661.058 238.498, 670.932 235.596 C 683.759 231.826, 691.935 234.452, 695.261 243.411 C 698.739 252.779, 694.552 257.869, 678.352 263.967 C 654.450 272.963, 647.984 276.121, 641.861 281.789 C 635.114 288.036, 633.469 290.714, 631.906 298.001 C 629.757 308.023, 634.241 322.908, 641.638 330.305 C 650.335 339.002, 659.171 340.552, 677.215 336.545 C 683.972 335.044, 690.400 333.645, 691.500 333.436 C 695.413 332.690, 706.210 324.666, 709.826 319.817 L 713.500 314.891 715.396 319.496 C 716.548 322.295, 717.783 323.913, 718.545 323.621 C 719.234 323.357, 722.510 322.607, 725.825 321.955 C 731.419 320.854, 731.788 320.616, 730.963 318.634 C 730.474 317.461, 728.904 311.550, 727.474 305.500 C 723.464 288.532, 724.349 284.620, 733.702 278 L 735.821 276.500 730.460 253.807 C 727.512 241.327, 724.213 229.378, 723.130 227.255 C 720.545 222.188, 715.722 217.560, 710.439 215.076 C 706.666 213.303, 695.196 210.791, 692.500 211.147 C 691.950 211.220, 688.125 211.617, 684 212.029 M 139.030 236.206 C 138.984 237.278, 132.983 266.255, 132.405 268.194 C 131.967 269.665, 130.624 269.289, 122.200 265.335 C 116.865 262.830, 108.683 259.003, 104.017 256.829 L 95.534 252.877 108.767 266.337 C 116.045 273.741, 122 280.033, 122 280.321 C 122 280.764, 92.262 292.628, 86.607 294.440 C 85.566 294.774, 84.891 295.202, 85.107 295.392 C 85.323 295.581, 93.600 295.328, 103.500 294.828 C 113.400 294.329, 122.457 294.051, 123.626 294.210 C 125.713 294.495, 125.672 294.774, 121.459 309.162 C 119.097 317.226, 116.641 324.802, 116.001 325.997 C 114.482 328.837, 115.758 330.089, 117.531 327.498 C 118.283 326.399, 121.493 322.221, 124.664 318.214 C 129.430 312.190, 130.547 311.248, 131.113 312.776 C 131.489 313.793, 133.412 321.572, 135.386 330.062 C 137.360 338.553, 140.560 352.250, 142.497 360.500 C 144.434 368.750, 147.890 383.600, 150.175 393.500 C 152.461 403.400, 154.604 411.824, 154.936 412.221 C 155.464 412.849, 173.034 409.222, 184.774 406.061 L 188.795 404.978 187.019 398.074 L 185.243 391.169 208.098 385.626 C 235.088 379.080, 243.127 375.657, 251.981 366.940 C 262.537 356.546, 267.372 341.588, 265.104 326.340 C 261.450 301.776, 247.860 285.830, 226.765 281.359 C 217.438 279.381, 209.024 280.089, 189.722 284.473 L 174.945 287.829 165.876 284.291 L 156.807 280.753 162.649 274.626 C 165.862 271.257, 171.631 265.238, 175.470 261.250 C 179.309 257.262, 182.203 254, 181.901 254 C 181.598 254, 173.744 257.572, 164.446 261.937 C 155.148 266.303, 147.450 269.783, 147.339 269.672 C 147.228 269.561, 145.704 262.502, 143.952 253.985 C 141.271 240.946, 139.155 233.304, 139.030 236.206 M 372.635 241.518 C 365.009 243.377, 358.519 245.148, 358.212 245.455 C 357.680 245.987, 362.628 268.962, 363.453 269.787 C 363.909 270.242, 391.456 263.954, 392.892 263.067 C 393.718 262.556, 393.020 258.926, 388.506 240.250 C 388.207 239.012, 387.633 238.031, 387.231 238.070 C 386.829 238.108, 380.261 239.660, 372.635 241.518 M 475.919 259.949 C 453.278 264.084, 437.118 273.018, 430.592 285.008 C 423.031 298.900, 428.204 319.512, 440.857 325.911 C 447.368 329.204, 455.114 330.250, 478 330.927 C 502.813 331.660, 506.675 332.537, 509.544 338.085 C 514.656 347.970, 504.765 358.717, 488.834 360.590 C 478.385 361.818, 467.928 356.649, 465.521 349.066 C 465.160 347.930, 464.333 346.996, 463.683 346.992 C 463.032 346.987, 456.503 348.396, 449.174 350.122 L 435.848 353.260 436.501 355.880 C 437.642 360.466, 442.890 368.668, 447.139 372.507 C 453.056 377.852, 460.979 381.020, 471.517 382.255 C 479.678 383.211, 481.195 383.109, 487.517 381.180 C 491.357 380.008, 499.545 377.880, 505.710 376.450 C 518.171 373.561, 525.593 369.574, 532.207 362.215 C 538.512 355.199, 540.319 350.621, 540.780 340.500 C 541.315 328.754, 538.874 321.586, 532.079 314.949 C 524.826 307.865, 520.303 306.877, 491.500 306.089 C 470.484 305.514, 467.005 305.188, 463.519 303.466 C 458.173 300.826, 456.167 295.929, 458.320 290.777 C 459.464 288.038, 461.101 286.609, 465.628 284.394 C 470.664 281.930, 472.647 281.537, 480.150 281.520 C 489.776 281.498, 492.631 282.769, 495.827 288.500 C 496.747 290.150, 497.604 291.679, 497.731 291.897 C 497.858 292.116, 504.270 290.798, 511.981 288.969 C 522.665 286.435, 525.998 285.269, 525.991 284.072 C 525.973 281.112, 520.116 272.272, 515.454 268.168 C 508.787 262.300, 501.562 259.820, 490 259.432 C 484.775 259.256, 478.439 259.489, 475.919 259.949 M 699.699 271.042 C 699.156 273.120, 693.019 276.425, 681.348 280.926 C 666.970 286.471, 661.999 291.552, 662.002 300.700 C 662.003 306.279, 664.383 311.540, 668.156 314.304 C 673.773 318.420, 689.363 316.141, 697.901 309.957 C 705.847 304.201, 708.063 294.957, 704.965 280.500 C 704.257 277.200, 703.742 273.538, 703.819 272.361 C 704.001 269.589, 700.382 268.430, 699.699 271.042 M 383.007 284.768 C 375.036 286.630, 368.315 288.351, 368.072 288.594 C 367.829 288.837, 369.507 297.016, 371.800 306.768 C 374.094 316.521, 378.904 337.100, 382.489 352.500 C 392.328 394.759, 393.345 398.940, 394.074 400.120 C 394.916 401.482, 423.008 395.142, 423.660 393.442 C 424.105 392.285, 399.616 285.824, 398.243 282.942 C 397.589 281.571, 395.761 281.790, 383.007 284.768 M 752.500 287.256 C 745.350 288.961, 739.309 290.505, 739.077 290.685 C 738.844 290.866, 739.928 296.643, 741.486 303.524 C 743.797 313.734, 744.610 315.948, 745.909 315.567 C 746.784 315.311, 753.575 313.689, 761 311.964 C 768.425 310.240, 774.594 308.735, 774.710 308.621 C 774.825 308.507, 773.659 303.033, 772.118 296.457 C 769.791 286.523, 768.995 284.471, 767.409 284.327 C 766.359 284.232, 759.650 285.550, 752.500 287.256 M 341.461 291.806 C 334.982 294.523, 330.352 297.797, 325.891 302.814 C 321.906 307.296, 317 316.486, 317 319.469 C 317 320.246, 316.584 321.139, 316.075 321.454 C 315.566 321.768, 314.150 317.632, 312.928 312.263 C 311.705 306.893, 310.602 302.368, 310.475 302.206 C 310.349 302.045, 303.846 303.362, 296.024 305.135 L 281.802 308.357 282.450 312.412 C 282.806 314.642, 284.855 323.899, 287.003 332.983 C 291.652 352.647, 301.853 396.355, 305.151 410.747 C 307.811 422.350, 307.316 421.998, 317.356 419.425 C 329.805 416.235, 338.079 412.836, 337.593 411.112 C 337.343 410.225, 334.408 397.741, 331.069 383.369 C 324.539 355.253, 323.754 347.560, 326.477 338.388 C 328.314 332.204, 333.375 326.166, 339.131 323.292 C 343.972 320.874, 354.099 318, 357.777 318 C 359.547 318, 360.010 317.563, 359.634 316.250 C 359.358 315.288, 357.877 308.988, 356.342 302.250 L 353.551 290 349.525 290.056 C 347.311 290.087, 343.682 290.874, 341.461 291.806 M 856.225 305.460 C 845.001 308.008, 835.358 313.426, 826.973 321.897 C 808.023 341.038, 804.900 367.957, 818.434 395.500 C 827.021 412.975, 840.794 423.088, 860.081 426.081 C 868.739 427.424, 880.531 426.061, 890.971 422.510 C 899.191 419.714, 903.546 417.296, 910.180 411.844 L 914.861 407.998 910.441 421.176 C 908.010 428.424, 906.164 434.497, 906.338 434.671 C 906.513 434.846, 911.943 429.366, 918.406 422.494 C 924.869 415.622, 930.496 410, 930.911 410 C 931.325 410, 936.748 415.512, 942.961 422.250 C 949.175 428.988, 954.629 434.643, 955.081 434.817 C 955.533 434.991, 953.674 428.483, 950.951 420.355 C 948.228 412.226, 946 405.159, 946 404.651 C 946 404.099, 954.114 403.921, 966.102 404.210 C 977.158 404.476, 985.596 404.360, 984.852 403.953 C 984.108 403.545, 976.075 400.623, 967 397.460 C 957.925 394.297, 950.275 391.501, 950 391.246 C 949.725 390.992, 955.350 385.197, 962.500 378.368 C 977.370 364.166, 978.278 364.441, 952.500 375.335 C 943.531 379.126, 939.304 380.468, 938.868 379.665 C 938.521 379.024, 936.763 372.200, 934.961 364.500 C 933.160 356.800, 931.384 350.150, 931.014 349.722 C 930.645 349.294, 929.361 353.344, 928.160 358.722 C 924.246 376.252, 924.599 375.526, 919.421 376.711 C 915.214 377.674, 914.181 377.478, 906.672 374.300 C 902.177 372.399, 897.263 370.384, 895.750 369.823 C 894.237 369.263, 893 368.475, 893 368.074 C 893 367.672, 900.308 365.658, 909.239 363.599 C 918.171 361.539, 925.650 359.684, 925.859 359.475 C 926.844 358.490, 922.283 343.801, 918.898 337.055 C 911.553 322.420, 900.710 312.086, 887.340 306.981 C 879.880 304.132, 865.227 303.416, 856.225 305.460 M 200.500 309.665 C 199.400 309.903, 191.631 311.727, 183.236 313.717 C 170.744 316.679, 168.059 317.623, 168.449 318.918 C 168.712 319.788, 170.999 329.500, 173.532 340.500 C 179.269 365.413, 178.839 364, 180.687 364 C 183.959 364, 212.625 356.817, 216.899 354.926 C 228.093 349.975, 232.608 343.163, 231.753 332.516 C 230.822 320.909, 224.953 312.233, 216.613 310.133 C 212.214 309.025, 204.490 308.801, 200.500 309.665 M 763.211 330.470 C 755.902 332.271, 749.672 333.995, 749.366 334.301 C 748.853 334.814, 774.384 445.718, 775.205 446.538 C 775.406 446.739, 782.192 445.312, 790.285 443.367 C 801.988 440.555, 804.993 439.490, 804.964 438.165 C 804.944 437.249, 799.173 411.975, 792.139 382 C 782.843 342.387, 778.960 327.458, 777.925 327.348 C 777.141 327.264, 770.520 328.669, 763.211 330.470 M 857.148 329.913 C 850.566 332.186, 847.319 334.531, 843.737 339.594 C 840.851 343.676, 838.678 353.052, 839.707 356.988 C 840.205 358.893, 840.737 359.087, 843.889 358.511 C 849.137 357.552, 890.432 347.800, 890.871 347.416 C 891.433 346.924, 886.386 338.612, 883.301 334.945 C 877.658 328.240, 867.599 326.304, 857.148 329.913 M 724.945 336.427 C 717.946 339.052, 713.426 341.892, 708.722 346.621 C 703.975 351.393, 698 361.691, 698 365.101 C 698 369.061, 696.100 367.696, 695.084 363.007 C 694.488 360.253, 693.513 355.750, 692.917 353 C 692.137 349.399, 691.368 348.012, 690.167 348.042 C 687.533 348.108, 664.010 353.657, 663.283 354.383 C 662.604 355.063, 687.840 464.914, 688.987 466.269 C 689.614 467.009, 717.526 460.807, 718.657 459.677 C 718.961 459.372, 716.238 446.329, 712.605 430.692 C 705.510 400.153, 704.784 393.456, 707.556 384.122 C 709.381 377.979, 714.601 371.756, 720.432 368.775 C 725.176 366.349, 733.340 364.029, 737.191 364.012 C 738.671 364.005, 740.107 363.636, 740.382 363.191 C 740.657 362.747, 739.438 356.334, 737.674 348.941 C 734.472 335.525, 734.461 335.500, 731.483 335.297 C 729.842 335.186, 726.900 335.694, 724.945 336.427 M 586.373 368.979 C 566.088 374.297, 551.153 388.024, 544.951 407.050 C 541.892 416.433, 541.633 432.786, 544.382 443 C 547.663 455.191, 553.573 465.792, 561.395 473.517 C 572.927 484.906, 583.038 489.014, 599.460 488.983 C 623.449 488.937, 643.641 478.496, 652.666 461.472 C 655.940 455.296, 659 445.193, 659 440.560 C 659 437.521, 659.561 437.494, 643.102 441.319 L 633.705 443.503 630.542 449.497 C 625.070 459.866, 615.584 465.023, 602.068 464.978 C 594.183 464.952, 588.610 462.697, 584.553 457.892 C 581.475 454.246, 577.026 445.458, 577.010 442.993 C 577.003 441.877, 580.572 440.649, 590.750 438.267 C 598.313 436.496, 616.425 432.263, 631 428.860 C 645.575 425.456, 657.666 422.542, 657.869 422.383 C 658.966 421.527, 654.072 406.349, 650.216 398.647 C 642.698 383.629, 629.502 372.189, 615.485 368.538 C 607.616 366.489, 595.151 366.677, 586.373 368.979 M 865.080 373.856 C 854.230 376.451, 845.480 379.046, 845.251 379.737 C 844.639 381.587, 849.725 392.091, 852.807 395.342 C 858.735 401.596, 867.101 403.938, 876.595 402.002 C 887.911 399.695, 897.726 392.177, 900.013 384.065 C 900.998 380.570, 900.901 380.386, 895.109 374.750 C 891.103 370.853, 888.442 369.034, 886.850 369.106 C 885.557 369.165, 875.761 371.302, 865.080 373.856 M 506.455 390.653 L 492.410 394.085 490.660 419.293 C 489.697 433.157, 488.406 451.813, 487.791 460.750 C 487.177 469.688, 486.409 476.993, 486.087 476.985 C 485.764 476.976, 476.275 461.019, 465 441.525 C 452.462 419.847, 443.909 406.064, 442.978 406.040 C 439.138 405.939, 412.522 412.903, 412.763 413.945 C 413.110 415.439, 474.821 514.160, 476.334 515.641 C 477.209 516.497, 481.606 515.798, 493.974 512.834 C 503.035 510.662, 510.569 508.764, 510.717 508.616 C 510.989 508.345, 514.688 471.461, 519.454 421.500 C 520.871 406.650, 522.288 392.813, 522.603 390.750 C 523.292 386.237, 524.498 386.245, 506.455 390.653 M 588.183 392.902 C 578.952 396.090, 572.827 404.051, 571.566 414.500 C 570.545 422.957, 569.790 422.898, 597.122 416.487 C 610.530 413.342, 621.834 410.571, 622.243 410.330 C 623.377 409.660, 619.337 402.379, 615.433 398.058 C 613.519 395.939, 610.433 393.484, 608.575 392.603 C 604.088 390.473, 594.820 390.609, 588.183 392.902 M 175.063 422.620 C 167.122 424.502, 160.430 426.236, 160.192 426.475 C 159.812 426.855, 164.155 445.917, 181.502 520 C 183.885 530.175, 187.927 547.500, 190.486 558.500 C 196.269 583.367, 195.857 582, 197.570 582 C 198.359 582, 210.366 579.324, 224.252 576.054 C 238.139 572.784, 262.076 567.145, 277.448 563.523 C 292.819 559.901, 305.577 556.757, 305.799 556.534 C 306.021 556.312, 304.768 550.026, 303.015 542.565 C 300.578 532.191, 299.455 529, 298.243 529 C 297.371 529, 286.272 531.449, 273.579 534.442 C 231.825 544.287, 223.779 546.113, 223.519 545.805 C 223.286 545.529, 220.982 535.832, 210.494 491 C 198.834 441.159, 194 420.253, 194 419.667 C 194 418.476, 189.759 419.137, 175.063 422.620 M 351 423.944 C 340.634 426.143, 328.733 430.679, 322.008 434.995 C 315.645 439.078, 308.308 447.192, 305.726 453 C 303.629 457.719, 302.006 473.964, 303.625 474.042 C 304.106 474.066, 311.135 472.603, 319.245 470.792 L 333.989 467.500 333.995 463.136 C 334.001 457.829, 336.932 452.270, 341.303 449.276 C 348.419 444.401, 363.378 442.734, 368.951 446.194 C 371.776 447.948, 375 454.823, 375 459.093 C 375 466.010, 370.138 469.544, 351.111 476.459 C 327.715 484.963, 317.942 491.314, 312.828 501.336 C 307.425 511.928, 310.803 530.769, 319.822 540.343 C 325.714 546.598, 338.792 550.756, 348.687 549.520 C 357.385 548.433, 368.032 545.132, 374.537 541.506 C 380.211 538.343, 391 528.743, 391 526.857 C 391 524.628, 392.944 526.403, 394.349 529.915 C 395.211 532.068, 396.418 534.140, 397.032 534.520 C 397.939 535.081, 425.641 529.412, 426.853 528.417 C 427.047 528.258, 426.027 525.636, 424.586 522.591 C 421.462 515.988, 419.231 507.680, 410.462 470 C 406.014 450.889, 402.951 439.865, 401.165 436.536 C 397.943 430.533, 391.709 425.585, 384.774 423.526 C 377.838 421.466, 361.742 421.665, 351 423.944 M 376.872 482.783 C 375.315 484.393, 369.334 487.474, 362.191 490.345 C 348.074 496.019, 342.581 500.128, 340.935 506.243 C 337.758 518.039, 346.216 527.992, 358.336 526.720 C 364.889 526.033, 374.176 522.564, 377.938 519.399 C 384.720 513.692, 386.659 503.278, 383.487 489.601 C 382.655 486.013, 382.093 482.524, 382.237 481.848 C 382.737 479.510, 379.490 480.076, 376.872 482.783" stroke="none" fill="#f8faf8" fill-rule="evenodd"/><path d="M 542.500 12.003 C 492.477 22.201, 447.752 77.202, 420.568 161.948 C 415.379 178.127, 407.890 207.771, 404.951 223.767 C 403.884 229.572, 402.883 234.450, 402.725 234.608 C 402.568 234.766, 400.957 232.723, 399.145 230.068 C 396.008 225.470, 395.583 225.211, 390.175 224.599 C 380.954 223.556, 356.356 229.292, 349.321 234.127 C 345.721 236.600, 344.989 237.734, 344.040 242.306 C 343.109 246.794, 343.251 248.920, 344.962 256.057 C 346.075 260.701, 346.989 265.199, 346.993 266.053 C 346.998 267.196, 344.426 268.210, 337.250 269.892 C 331.887 271.149, 322.100 273.460, 315.500 275.028 C 308.900 276.595, 296.525 279.490, 288 281.459 C 279.475 283.429, 270.700 285.463, 268.500 285.979 C 264.688 286.874, 264.312 286.738, 260.500 283.083 C 251.929 274.864, 241.496 269.372, 229.613 266.824 C 224.481 265.723, 200.647 266.243, 196.285 267.551 C 194.349 268.131, 193.768 267.532, 191.670 262.788 C 188.667 255.998, 178.997 245.581, 171.512 241.074 C 164.437 236.814, 151.555 233, 144.242 233 L 138.710 233 139.304 225.911 C 141.014 205.517, 159.806 187.280, 191.835 174.930 C 209.780 168.011, 244.690 160.888, 269.946 158.993 C 306.436 156.255, 360.771 157.169, 395.863 161.111 C 405.963 162.245, 414.578 162.797, 415.008 162.337 C 416.205 161.054, 421 147.135, 421 144.940 C 421 143.367, 420.291 142.998, 417.250 142.989 C 415.188 142.983, 407.200 142.303, 399.500 141.477 C 370.575 138.376, 345.672 137.002, 318.500 137.010 C 221.632 137.036, 155.516 157.372, 130.002 194.990 C 122.958 205.374, 119.791 214.663, 119.228 226.587 L 118.752 236.675 112.685 240.010 C 109.347 241.845, 103.891 246.087, 100.559 249.436 C 90.126 259.923, 86.337 269.981, 87.200 284.893 C 87.458 289.353, 87.897 293.230, 88.174 293.507 C 88.636 293.970, 117.276 283.064, 120.844 281.067 C 122.072 280.380, 119.755 277.522, 109.524 267.102 C 102.448 259.896, 97.074 254.021, 97.580 254.047 C 98.086 254.072, 105.925 257.624, 115 261.939 C 129.146 268.666, 131.604 269.551, 132.228 268.143 C 132.629 267.239, 134.331 259.773, 136.011 251.551 C 137.690 243.329, 139.234 236.433, 139.441 236.226 C 140.024 235.643, 140.705 238.346, 144.047 254.491 C 145.753 262.737, 147.237 269.571, 147.345 269.679 C 147.453 269.786, 155.148 266.303, 164.446 261.937 C 173.744 257.572, 181.598 254, 181.901 254 C 182.203 254, 179.309 257.263, 175.470 261.250 C 171.631 265.238, 165.862 271.257, 162.649 274.626 L 156.807 280.753 165.876 284.291 L 174.945 287.829 189.722 284.473 C 209.024 280.089, 217.438 279.381, 226.765 281.359 C 247.860 285.830, 261.450 301.776, 265.104 326.340 C 267.372 341.588, 262.537 356.546, 251.981 366.940 C 243.127 375.657, 235.088 379.080, 208.098 385.626 L 185.243 391.169 187.019 398.074 L 188.795 404.978 184.774 406.061 C 173.034 409.222, 155.464 412.849, 154.936 412.221 C 154.604 411.824, 152.461 403.400, 150.175 393.500 C 147.890 383.600, 144.434 368.750, 142.497 360.500 C 140.560 352.250, 137.360 338.553, 135.386 330.062 C 133.412 321.572, 131.493 313.804, 131.122 312.801 C 130.566 311.297, 129.450 312.197, 124.762 317.936 L 119.077 324.895 123.647 344.197 C 126.160 354.814, 129.023 367.100, 130.009 371.500 C 130.995 375.900, 133.447 386.475, 135.458 395 C 137.469 403.525, 139.989 414.325, 141.058 419 C 142.128 423.675, 143.447 429.300, 143.990 431.500 C 144.534 433.700, 146.148 440.639, 147.577 446.920 C 149.007 453.201, 150.858 459.379, 151.690 460.650 C 153.082 462.774, 152.963 463.625, 150.209 471.235 C 138.351 504.007, 140.956 532.947, 158.020 558 C 161.828 563.591, 171.957 573.807, 177.620 577.769 C 179.523 579.099, 180.982 581.159, 181.359 583.047 C 182.188 587.188, 187.869 594.957, 190.440 595.463 C 197.110 596.776, 199.554 596.860, 203.904 595.927 C 208.038 595.041, 209.590 595.202, 214.619 597.040 C 227.719 601.830, 246.986 606.050, 267.500 608.623 C 285.249 610.849, 292.525 611.262, 314.500 611.289 C 328.800 611.306, 345.900 610.802, 352.500 610.170 C 359.100 609.537, 369.450 608.557, 375.500 607.993 C 399.588 605.746, 443.148 598.359, 470.500 591.884 C 547.234 573.717, 616.222 549.639, 694.500 513.705 C 721.593 501.267, 778.791 470.868, 796.944 459.259 C 799.937 457.344, 804.463 455.161, 807 454.407 C 809.835 453.565, 813.517 451.270, 816.556 448.449 C 822.803 442.651, 824.812 441.607, 834.498 439.126 L 842.374 437.109 849.869 439.165 C 860.659 442.125, 879.661 441.407, 892.630 437.549 L 901.761 434.833 907.719 437.934 C 914.097 441.253, 926.056 444, 934.130 444 C 947.580 444, 963.017 438.155, 972.455 429.491 C 975.145 427.021, 977.444 425, 977.564 425 C 977.683 425, 978.793 428.713, 980.030 433.250 C 983.975 447.719, 982.234 461.940, 975.153 473.101 C 967.950 484.451, 952.916 495.569, 934.528 503.140 C 918.066 509.918, 902.388 513.974, 873.500 518.927 C 862.291 520.848, 825.121 523, 803.129 523 C 774.484 523, 722.107 519.898, 710.500 517.514 C 708.759 517.156, 708.123 518.327, 705.588 526.556 C 703.986 531.755, 702.861 536.188, 703.088 536.408 C 703.956 537.250, 741.865 541.095, 758.289 542.006 C 780.408 543.234, 825.294 543.231, 844.294 542.001 C 852.430 541.473, 867.055 539.891, 876.794 538.483 C 926.354 531.321, 961.252 517.262, 982 496.101 C 995.309 482.526, 1000.876 470.088, 1001.736 452 C 1002.484 436.268, 999.388 423.317, 990.980 407 C 988.632 402.443, 988.080 399.956, 987.762 392.500 C 987.434 384.825, 986.889 382.482, 984.059 376.584 C 979.386 366.849, 969.858 357.419, 960 352.775 C 949.024 347.604, 948.484 347.568, 943.922 351.690 C 940.138 355.108, 940.001 355.150, 940.032 352.866 C 940.055 351.256, 943.149 347.306, 949.721 340.500 C 961.031 328.788, 979.187 306.222, 987.390 293.683 C 1011.977 256.096, 1020.953 221.282, 1013.476 192.505 C 1003.243 153.121, 969.020 128.185, 909.913 117.047 C 889.105 113.125, 879.902 112.500, 843 112.500 C 808.198 112.500, 795.324 113.156, 774.500 115.991 C 766.800 117.039, 757.800 118.192, 754.500 118.555 C 751.200 118.917, 743.100 120.250, 736.500 121.518 C 729.900 122.786, 722.475 124.126, 720 124.496 C 711.242 125.806, 670.144 135.440, 647.500 141.491 C 626.497 147.104, 580.222 162.106, 556.500 170.994 C 550.450 173.260, 543.250 175.940, 540.500 176.948 C 537.750 177.956, 531.450 180.454, 526.500 182.499 C 521.550 184.543, 513.675 187.782, 509 189.696 C 493.502 196.040, 489.608 197.725, 476.500 203.764 C 455.680 213.355, 429.493 226.177, 416.065 233.354 C 409.225 237.009, 403.488 240, 403.315 240 C 403.142 240, 403 239.179, 403 238.175 C 403 236.840, 406.745 234.412, 416.937 229.139 L 430.873 221.928 431.991 216.214 C 433.516 208.417, 438.701 187.929, 441.155 180 C 442.262 176.425, 443.755 171.475, 444.474 169 C 451.249 145.679, 467.495 110.566, 480.796 90.500 C 499.019 63.007, 519.820 44.896, 541.228 37.883 C 547.329 35.884, 550.514 35.502, 561 35.511 C 572.018 35.520, 574.366 35.836, 580.806 38.180 C 609.477 48.614, 634.824 75.691, 656.424 118.963 C 660.121 126.367, 663.336 132.735, 663.570 133.113 C 663.804 133.492, 667.934 132.762, 672.748 131.491 C 677.561 130.221, 682.781 128.896, 684.347 128.547 C 686.836 127.993, 687.112 127.581, 686.535 125.282 C 685.629 121.673, 674.012 98.063, 668.928 89.500 C 650.217 57.980, 629.218 35.550, 606 22.282 C 586.730 11.271, 564.079 7.604, 542.500 12.003 M 835.500 131.730 C 775.929 132.974, 696.164 146.852, 630 167.485 C 625.875 168.772, 617.100 171.485, 610.500 173.514 C 603.900 175.544, 597.375 177.672, 596 178.244 C 594.625 178.815, 590.350 180.304, 586.500 181.552 C 576.017 184.951, 554.778 192.878, 554.097 193.646 C 553.769 194.016, 554.356 194.010, 555.402 193.632 C 557.131 193.009, 560.549 192.186, 574 189.154 C 576.475 188.596, 583.225 186.483, 589 184.458 L 599.500 180.776 606 182.448 C 614.089 184.528, 629.722 189.241, 641.273 193.083 C 646.098 194.687, 650.823 195.996, 651.773 195.991 C 654.133 195.978, 680.761 189.572, 681.492 188.842 C 682.067 188.266, 680.359 181.641, 675.922 167.241 C 674.691 163.248, 673.961 159.706, 674.298 159.369 C 675.201 158.466, 692.841 154, 695.505 154 C 697.517 154, 698.157 155.163, 700.875 163.750 C 702.572 169.113, 704.513 175.637, 705.188 178.250 C 705.863 180.863, 706.962 183, 707.631 183 C 708.720 183, 717.911 180.892, 742.500 175.001 C 750.175 173.163, 766.681 169.321, 794.500 162.897 C 801.650 161.246, 811.775 158.831, 817 157.531 C 822.225 156.230, 831.199 154.170, 836.943 152.953 C 853.784 149.385, 865.237 151.226, 877.710 159.508 L 883.099 163.086 889.572 157.155 C 896.567 150.746, 907.130 144.672, 915.960 141.983 L 921.500 140.296 917 139.042 C 899.826 134.257, 864.830 131.117, 835.500 131.730 M 454.206 154.250 C 450.126 165.306, 449.685 167.187, 450.985 167.991 C 451.655 168.405, 456.320 169.292, 461.352 169.961 C 466.383 170.631, 475.675 172.224, 482 173.502 C 488.325 174.780, 495.300 176.103, 497.500 176.443 C 499.700 176.783, 505.559 178.010, 510.519 179.171 L 519.538 181.282 530.519 177.010 C 536.559 174.660, 543.638 172.030, 546.250 171.165 C 555.120 168.228, 554.456 167.986, 514 159.392 C 504.925 157.464, 493.900 155.276, 489.500 154.530 C 485.100 153.784, 476.640 152.234, 470.699 151.087 C 455.864 148.221, 456.475 148.103, 454.206 154.250 M 925.500 154.501 C 905.506 159.977, 892.090 170.960, 885.063 187.604 C 875.152 211.079, 881.194 241.424, 899.395 259.592 C 910.583 270.760, 920.961 274.945, 937.500 274.958 C 961.619 274.977, 982.467 263.984, 990.935 246.783 C 995.718 237.068, 998.674 224, 996.089 224 C 995.133 224, 974.773 228.688, 971.750 229.604 C 970.788 229.896, 970 230.852, 970 231.730 C 970 234.881, 964.865 241.997, 960.348 245.105 C 947.909 253.663, 930.242 252.996, 922.368 243.672 C 919.423 240.184, 915.025 231.389, 915.010 228.956 C 914.999 227.244, 913.709 227.587, 964 215.930 C 981.325 211.914, 995.666 208.508, 995.869 208.362 C 996.957 207.575, 992.099 192.407, 988.397 185.028 C 980.851 169.989, 968.973 159.234, 955.217 154.985 C 947.580 152.626, 933.200 152.392, 925.500 154.501 M 925.581 179.014 C 919.537 181.374, 914.358 186.150, 911.866 191.663 C 910.021 195.742, 908.878 206.209, 910.139 207.471 C 910.653 207.987, 955.127 198.154, 959.780 196.496 C 962.979 195.356, 952.791 181.552, 946.575 178.603 C 941.935 176.401, 931.764 176.600, 925.581 179.014 M 810.059 181.492 C 796.307 184.610, 785.923 192.283, 780.237 203.528 C 778.628 206.710, 777.084 208.905, 776.805 208.407 C 776.526 207.908, 775.711 204.646, 774.993 201.159 C 774.275 197.671, 773.106 194.594, 772.394 194.321 C 771.683 194.048, 765.007 195.264, 757.559 197.022 C 744.904 200.011, 744.052 200.360, 744.546 202.360 C 744.838 203.537, 748.546 219.289, 752.788 237.366 L 760.500 270.231 767.682 270.515 C 771.632 270.670, 775.339 271.091, 775.919 271.450 C 776.499 271.809, 778.268 273.992, 779.850 276.301 C 782.813 280.629, 788 299.426, 788 305.839 C 788 308.812, 788.194 308.994, 790.750 308.419 C 796.917 307.030, 801 305.904, 801 305.593 C 801 305.412, 797.882 292.038, 794.071 275.874 C 790.261 259.710, 786.608 243.412, 785.954 239.657 C 782.548 220.100, 791.615 208, 809.675 208 C 818.678 208, 824.083 212.243, 827.808 222.234 C 829.313 226.272, 842.010 278.309, 844.776 291.779 C 845.093 293.320, 845.771 293.898, 846.872 293.565 C 850.774 292.386, 858.108 291.039, 865.947 290.061 C 870.592 289.481, 874.770 288.630, 875.231 288.169 C 875.692 287.708, 874.454 280.394, 872.480 271.915 C 864.397 237.193, 861.759 226.026, 859.407 216.587 C 855.175 199.599, 846.945 187.075, 837.173 182.752 C 831.251 180.133, 818.640 179.546, 810.059 181.492 M 586.102 202.195 C 587.110 205.113, 587.949 208.340, 587.967 209.367 C 587.993 210.813, 588.507 211.095, 590.250 210.620 C 591.487 210.283, 597.168 209.017, 602.874 207.806 L 613.248 205.605 607.874 203.769 C 604.918 202.759, 599.048 201.047, 594.829 199.965 C 590.609 198.883, 586.508 197.748, 585.714 197.444 C 584.533 196.991, 584.604 197.858, 586.102 202.195 M 526.500 204.080 C 525.400 204.538, 520 206.777, 514.500 209.056 C 491.662 218.522, 431.457 246.790, 432.313 247.646 C 432.492 247.826, 435.758 247.135, 439.570 246.112 C 443.381 245.088, 453.700 242.592, 462.500 240.564 C 510.484 229.506, 529 224.852, 529 223.849 C 529 223.319, 528.516 220.963, 527.924 218.612 C 527.187 215.686, 527.159 212.630, 527.835 208.919 C 528.379 205.939, 528.750 203.443, 528.662 203.374 C 528.573 203.305, 527.600 203.623, 526.500 204.080 M 555.250 208.328 C 544.643 210.785, 542 211.737, 542 213.099 C 542 214.035, 543.575 221.384, 545.500 229.430 C 547.425 237.476, 549 244.445, 549 244.918 C 549 245.390, 544.950 246.777, 540 248 C 533.920 249.502, 531 250.686, 531 251.648 C 531 255.123, 535.357 269.999, 536.373 269.992 C 536.993 269.988, 541.098 269.123, 545.496 268.071 C 549.893 267.019, 553.668 266.334, 553.883 266.550 C 554.099 266.766, 558.003 282.885, 562.560 302.370 C 567.116 321.855, 571.604 339.305, 572.534 341.149 C 577.696 351.385, 584.129 354.092, 600.500 352.918 C 609.910 352.244, 626.826 348.508, 628.627 346.707 C 629.570 345.763, 623.642 322.952, 622.566 323.383 C 621.980 323.618, 618.350 324.572, 614.500 325.503 C 606.626 327.408, 603.184 326.737, 600.601 322.794 C 598.619 319.770, 584.620 259.946, 585.680 259.036 C 586.131 258.649, 590.965 257.355, 596.423 256.160 C 601.880 254.966, 606.543 253.790, 606.785 253.548 C 607.168 253.165, 604.769 240.688, 603.363 235.750 C 602.720 233.489, 600.742 233.545, 590.489 236.117 C 585.847 237.281, 581.461 238.007, 580.742 237.731 C 579.992 237.444, 578.213 231.748, 576.573 224.384 C 572.449 205.871, 572.155 204.981, 570.203 205.129 C 569.266 205.200, 562.538 206.639, 555.250 208.328 M 684 212.029 C 674.234 213.006, 664.735 215.288, 655.480 218.882 C 635.821 226.515, 625.283 238.915, 624.207 255.677 C 623.847 261.284, 624.057 263.079, 625.120 263.469 C 625.879 263.747, 632.800 262.493, 640.500 260.682 L 654.500 257.389 655.142 252.184 C 656.201 243.601, 661.058 238.498, 670.932 235.596 C 683.759 231.826, 691.935 234.452, 695.261 243.411 C 698.739 252.779, 694.552 257.869, 678.352 263.967 C 654.450 272.963, 647.984 276.121, 641.861 281.789 C 635.114 288.036, 633.469 290.714, 631.906 298.001 C 629.757 308.023, 634.241 322.908, 641.638 330.305 C 650.335 339.002, 659.171 340.552, 677.215 336.545 C 683.972 335.044, 690.400 333.645, 691.500 333.436 C 695.413 332.690, 706.210 324.666, 709.826 319.817 L 713.500 314.891 715.396 319.496 C 716.548 322.295, 717.783 323.913, 718.545 323.621 C 719.234 323.357, 722.510 322.607, 725.825 321.955 C 731.419 320.854, 731.788 320.616, 730.963 318.634 C 730.474 317.461, 728.904 311.550, 727.474 305.500 C 723.464 288.532, 724.349 284.620, 733.702 278 L 735.821 276.500 730.460 253.807 C 727.512 241.327, 724.213 229.378, 723.130 227.255 C 720.545 222.188, 715.722 217.560, 710.439 215.076 C 706.666 213.303, 695.196 210.791, 692.500 211.147 C 691.950 211.220, 688.125 211.617, 684 212.029 M 372.635 241.518 C 365.009 243.377, 358.519 245.148, 358.212 245.455 C 357.680 245.987, 362.628 268.962, 363.453 269.787 C 363.909 270.242, 391.456 263.954, 392.892 263.067 C 393.718 262.556, 393.020 258.926, 388.506 240.250 C 388.207 239.012, 387.633 238.031, 387.231 238.070 C 386.829 238.108, 380.261 239.660, 372.635 241.518 M 475.919 259.949 C 453.278 264.084, 437.118 273.018, 430.592 285.008 C 423.031 298.900, 428.204 319.512, 440.857 325.911 C 447.368 329.204, 455.114 330.250, 478 330.927 C 502.813 331.660, 506.675 332.537, 509.544 338.085 C 514.656 347.970, 504.765 358.717, 488.834 360.590 C 478.385 361.818, 467.928 356.649, 465.521 349.066 C 465.160 347.930, 464.333 346.996, 463.683 346.992 C 463.032 346.987, 456.503 348.396, 449.174 350.122 L 435.848 353.260 436.501 355.880 C 437.642 360.466, 442.890 368.668, 447.139 372.507 C 453.056 377.852, 460.979 381.020, 471.517 382.255 C 479.678 383.211, 481.195 383.109, 487.517 381.180 C 491.357 380.008, 499.545 377.880, 505.710 376.450 C 518.171 373.561, 525.593 369.574, 532.207 362.215 C 538.512 355.199, 540.319 350.621, 540.780 340.500 C 541.315 328.754, 538.874 321.586, 532.079 314.949 C 524.826 307.865, 520.303 306.877, 491.500 306.089 C 470.484 305.514, 467.005 305.188, 463.519 303.466 C 458.173 300.826, 456.167 295.929, 458.320 290.777 C 459.464 288.038, 461.101 286.609, 465.628 284.394 C 470.664 281.930, 472.647 281.537, 480.150 281.520 C 489.776 281.498, 492.631 282.769, 495.827 288.500 C 496.747 290.150, 497.604 291.679, 497.731 291.897 C 497.858 292.116, 504.270 290.798, 511.981 288.969 C 522.665 286.435, 525.998 285.269, 525.991 284.072 C 525.973 281.112, 520.116 272.272, 515.454 268.168 C 508.787 262.300, 501.562 259.820, 490 259.432 C 484.775 259.256, 478.439 259.489, 475.919 259.949 M 699.699 271.042 C 699.156 273.120, 693.019 276.425, 681.348 280.926 C 666.970 286.471, 661.999 291.552, 662.002 300.700 C 662.003 306.279, 664.383 311.540, 668.156 314.304 C 673.773 318.420, 689.363 316.141, 697.901 309.957 C 705.847 304.201, 708.063 294.957, 704.965 280.500 C 704.257 277.200, 703.742 273.538, 703.819 272.361 C 704.001 269.589, 700.382 268.430, 699.699 271.042 M 383.007 284.768 C 375.036 286.630, 368.315 288.351, 368.072 288.594 C 367.829 288.837, 369.507 297.016, 371.800 306.768 C 374.094 316.521, 378.904 337.100, 382.489 352.500 C 392.328 394.759, 393.345 398.940, 394.074 400.120 C 394.916 401.482, 423.008 395.142, 423.660 393.442 C 424.105 392.285, 399.616 285.824, 398.243 282.942 C 397.589 281.571, 395.761 281.790, 383.007 284.768 M 752.500 287.256 C 745.350 288.961, 739.309 290.505, 739.077 290.685 C 738.844 290.866, 739.928 296.643, 741.486 303.524 C 743.797 313.734, 744.610 315.948, 745.909 315.567 C 746.784 315.311, 753.575 313.689, 761 311.964 C 768.425 310.240, 774.594 308.735, 774.710 308.621 C 774.825 308.507, 773.659 303.033, 772.118 296.457 C 769.791 286.523, 768.995 284.471, 767.409 284.327 C 766.359 284.232, 759.650 285.550, 752.500 287.256 M 963.364 285.973 C 953.047 289.644, 930.365 290.925, 921.599 288.332 C 920.179 287.912, 919.848 288.161, 920.290 289.313 C 920.616 290.162, 922.519 297.976, 924.521 306.678 C 927.886 321.312, 930.674 329.911, 932.074 329.974 C 932.670 330.001, 947.561 313.212, 954.668 304.500 C 961.212 296.478, 970.148 283.994, 969.289 284.073 C 968.855 284.113, 966.189 284.968, 963.364 285.973 M 341.461 291.806 C 334.982 294.523, 330.352 297.797, 325.891 302.814 C 321.906 307.296, 317 316.486, 317 319.469 C 317 320.246, 316.584 321.139, 316.075 321.454 C 315.566 321.768, 314.150 317.632, 312.928 312.263 C 311.705 306.893, 310.602 302.368, 310.475 302.206 C 310.349 302.045, 303.846 303.362, 296.024 305.135 L 281.802 308.357 282.450 312.412 C 282.806 314.642, 284.855 323.899, 287.003 332.983 C 291.652 352.647, 301.853 396.355, 305.151 410.747 C 307.811 422.350, 307.316 421.998, 317.356 419.425 C 329.805 416.235, 338.079 412.836, 337.593 411.112 C 337.343 410.225, 334.408 397.741, 331.069 383.369 C 324.539 355.253, 323.754 347.560, 326.477 338.388 C 328.314 332.204, 333.375 326.166, 339.131 323.292 C 343.972 320.874, 354.099 318, 357.777 318 C 359.547 318, 360.010 317.563, 359.634 316.250 C 359.358 315.288, 357.877 308.988, 356.342 302.250 L 353.551 290 349.525 290.056 C 347.311 290.087, 343.682 290.874, 341.461 291.806 M 100.250 294.747 C 92.796 294.958, 89 295.444, 89 296.187 C 89 299.251, 96.624 310.397, 102.125 315.375 C 107.435 320.180, 115.813 325.521, 116.680 324.653 C 116.934 324.399, 119.073 317.324, 124.357 299.250 L 125.892 294 118.696 294.214 C 114.738 294.331, 106.438 294.571, 100.250 294.747 M 856.225 305.460 C 845.001 308.008, 835.358 313.426, 826.973 321.897 C 808.023 341.038, 804.900 367.957, 818.434 395.500 C 827.021 412.975, 840.794 423.088, 860.081 426.081 C 868.739 427.424, 880.531 426.061, 890.971 422.510 C 899.191 419.714, 903.546 417.296, 910.180 411.844 L 914.861 407.998 910.441 421.176 C 908.010 428.424, 906.164 434.497, 906.338 434.671 C 906.513 434.846, 911.943 429.366, 918.406 422.494 C 924.869 415.622, 930.496 410, 930.911 410 C 931.325 410, 936.748 415.512, 942.961 422.250 C 949.175 428.988, 954.629 434.643, 955.081 434.817 C 955.533 434.991, 953.674 428.483, 950.951 420.355 C 948.228 412.226, 946 405.159, 946 404.651 C 946 404.099, 954.114 403.921, 966.102 404.210 C 977.158 404.476, 985.596 404.360, 984.852 403.953 C 984.108 403.545, 976.075 400.623, 967 397.460 C 957.925 394.297, 950.275 391.501, 950 391.246 C 949.725 390.992, 955.350 385.197, 962.500 378.368 C 977.370 364.166, 978.278 364.441, 952.500 375.335 C 943.531 379.126, 939.304 380.468, 938.868 379.665 C 938.521 379.024, 936.763 372.200, 934.961 364.500 C 933.160 356.800, 931.384 350.150, 931.014 349.722 C 930.645 349.294, 929.361 353.344, 928.160 358.722 C 924.246 376.252, 924.599 375.526, 919.421 376.711 C 915.214 377.674, 914.181 377.478, 906.672 374.300 C 902.177 372.399, 897.263 370.384, 895.750 369.823 C 894.237 369.263, 893 368.475, 893 368.074 C 893 367.672, 900.308 365.658, 909.239 363.599 C 918.171 361.539, 925.650 359.684, 925.859 359.475 C 926.844 358.490, 922.283 343.801, 918.898 337.055 C 911.553 322.420, 900.710 312.086, 887.340 306.981 C 879.880 304.132, 865.227 303.416, 856.225 305.460 M 200.500 309.665 C 199.400 309.903, 191.631 311.727, 183.236 313.717 C 170.744 316.679, 168.059 317.623, 168.449 318.918 C 168.712 319.788, 170.999 329.500, 173.532 340.500 C 179.269 365.413, 178.839 364, 180.687 364 C 183.959 364, 212.625 356.817, 216.899 354.926 C 228.093 349.975, 232.608 343.163, 231.753 332.516 C 230.822 320.909, 224.953 312.233, 216.613 310.133 C 212.214 309.025, 204.490 308.801, 200.500 309.665 M 763.211 330.470 C 755.902 332.271, 749.672 333.995, 749.366 334.301 C 748.853 334.814, 774.384 445.718, 775.205 446.538 C 775.406 446.739, 782.192 445.312, 790.285 443.367 C 801.988 440.555, 804.993 439.490, 804.964 438.165 C 804.944 437.249, 799.173 411.975, 792.139 382 C 782.843 342.387, 778.960 327.458, 777.925 327.348 C 777.141 327.264, 770.520 328.669, 763.211 330.470 M 857.148 329.913 C 850.566 332.186, 847.319 334.531, 843.737 339.594 C 840.851 343.676, 838.678 353.052, 839.707 356.988 C 840.205 358.893, 840.737 359.087, 843.889 358.511 C 849.137 357.552, 890.432 347.800, 890.871 347.416 C 891.433 346.924, 886.386 338.612, 883.301 334.945 C 877.658 328.240, 867.599 326.304, 857.148 329.913 M 724.945 336.427 C 717.946 339.052, 713.426 341.892, 708.722 346.621 C 703.975 351.393, 698 361.691, 698 365.101 C 698 369.061, 696.100 367.696, 695.084 363.007 C 694.488 360.253, 693.513 355.750, 692.917 353 C 692.137 349.399, 691.368 348.012, 690.167 348.042 C 687.533 348.108, 664.010 353.657, 663.283 354.383 C 662.604 355.063, 687.840 464.914, 688.987 466.269 C 689.614 467.009, 717.526 460.807, 718.657 459.677 C 718.961 459.372, 716.238 446.329, 712.605 430.692 C 705.510 400.153, 704.784 393.456, 707.556 384.122 C 709.381 377.979, 714.601 371.756, 720.432 368.775 C 725.176 366.349, 733.340 364.029, 737.191 364.012 C 738.671 364.005, 740.107 363.636, 740.382 363.191 C 740.657 362.747, 739.438 356.334, 737.674 348.941 C 734.472 335.525, 734.461 335.500, 731.483 335.297 C 729.842 335.186, 726.900 335.694, 724.945 336.427 M 586.373 368.979 C 566.088 374.297, 551.153 388.024, 544.951 407.050 C 541.892 416.433, 541.633 432.786, 544.382 443 C 547.663 455.191, 553.573 465.792, 561.395 473.517 C 572.927 484.906, 583.038 489.014, 599.460 488.983 C 623.449 488.937, 643.641 478.496, 652.666 461.472 C 655.940 455.296, 659 445.193, 659 440.560 C 659 437.521, 659.561 437.494, 643.102 441.319 L 633.705 443.503 630.542 449.497 C 625.070 459.866, 615.584 465.023, 602.068 464.978 C 594.183 464.952, 588.610 462.697, 584.553 457.892 C 581.475 454.246, 577.026 445.458, 577.010 442.993 C 577.003 441.877, 580.572 440.649, 590.750 438.267 C 598.313 436.496, 616.425 432.263, 631 428.860 C 645.575 425.456, 657.666 422.542, 657.869 422.383 C 658.966 421.527, 654.072 406.349, 650.216 398.647 C 642.698 383.629, 629.502 372.189, 615.485 368.538 C 607.616 366.489, 595.151 366.677, 586.373 368.979 M 865.080 373.856 C 854.230 376.451, 845.480 379.046, 845.251 379.737 C 844.639 381.587, 849.725 392.091, 852.807 395.342 C 858.735 401.596, 867.101 403.938, 876.595 402.002 C 887.911 399.695, 897.726 392.177, 900.013 384.065 C 900.998 380.570, 900.901 380.386, 895.109 374.750 C 891.103 370.853, 888.442 369.034, 886.850 369.106 C 885.557 369.165, 875.761 371.302, 865.080 373.856 M 506.455 390.653 L 492.410 394.085 490.660 419.293 C 489.697 433.157, 488.406 451.813, 487.791 460.750 C 487.177 469.688, 486.409 476.993, 486.087 476.985 C 485.764 476.976, 476.275 461.019, 465 441.525 C 452.462 419.847, 443.909 406.064, 442.978 406.040 C 439.138 405.939, 412.522 412.903, 412.763 413.945 C 413.110 415.439, 474.821 514.160, 476.334 515.641 C 477.209 516.497, 481.606 515.798, 493.974 512.834 C 503.035 510.662, 510.569 508.764, 510.717 508.616 C 510.989 508.345, 514.688 471.461, 519.454 421.500 C 520.871 406.650, 522.288 392.813, 522.603 390.750 C 523.292 386.237, 524.498 386.245, 506.455 390.653 M 588.183 392.902 C 578.952 396.090, 572.827 404.051, 571.566 414.500 C 570.545 422.957, 569.790 422.898, 597.122 416.487 C 610.530 413.342, 621.834 410.571, 622.243 410.330 C 623.377 409.660, 619.337 402.379, 615.433 398.058 C 613.519 395.939, 610.433 393.484, 608.575 392.603 C 604.088 390.473, 594.820 390.609, 588.183 392.902 M 175.063 422.620 C 167.122 424.502, 160.430 426.236, 160.192 426.475 C 159.812 426.855, 164.155 445.917, 181.502 520 C 183.885 530.175, 187.927 547.500, 190.486 558.500 C 196.269 583.367, 195.857 582, 197.570 582 C 198.359 582, 210.366 579.324, 224.252 576.054 C 238.139 572.784, 262.076 567.145, 277.448 563.523 C 292.819 559.901, 305.577 556.757, 305.799 556.534 C 306.021 556.312, 304.768 550.026, 303.015 542.565 C 300.578 532.191, 299.455 529, 298.243 529 C 297.371 529, 286.272 531.449, 273.579 534.442 C 231.825 544.287, 223.779 546.113, 223.519 545.805 C 223.286 545.529, 220.982 535.832, 210.494 491 C 198.834 441.159, 194 420.253, 194 419.667 C 194 418.476, 189.759 419.137, 175.063 422.620 M 351 423.944 C 340.634 426.143, 328.733 430.679, 322.008 434.995 C 315.645 439.078, 308.308 447.192, 305.726 453 C 303.629 457.719, 302.006 473.964, 303.625 474.042 C 304.106 474.066, 311.135 472.603, 319.245 470.792 L 333.989 467.500 333.995 463.136 C 334.001 457.829, 336.932 452.270, 341.303 449.276 C 348.419 444.401, 363.378 442.734, 368.951 446.194 C 371.776 447.948, 375 454.823, 375 459.093 C 375 466.010, 370.138 469.544, 351.111 476.459 C 327.715 484.963, 317.942 491.314, 312.828 501.336 C 307.425 511.928, 310.803 530.769, 319.822 540.343 C 325.714 546.598, 338.792 550.756, 348.687 549.520 C 357.385 548.433, 368.032 545.132, 374.537 541.506 C 380.211 538.343, 391 528.743, 391 526.857 C 391 524.628, 392.944 526.403, 394.349 529.915 C 395.211 532.068, 396.418 534.140, 397.032 534.520 C 397.939 535.081, 425.641 529.412, 426.853 528.417 C 427.047 528.258, 426.027 525.636, 424.586 522.591 C 421.462 515.988, 419.231 507.680, 410.462 470 C 406.014 450.889, 402.951 439.865, 401.165 436.536 C 397.943 430.533, 391.709 425.585, 384.774 423.526 C 377.838 421.466, 361.742 421.665, 351 423.944 M 759.857 456.476 C 759.595 456.738, 754.195 458.074, 747.856 459.444 C 733.396 462.570, 733.337 462.595, 732.184 465.903 C 731.027 469.221, 723.014 474.568, 717.750 475.534 C 715.688 475.913, 714 476.619, 714 477.105 C 714 478.133, 686.010 492.343, 685.328 491.661 C 685.075 491.408, 685.378 489.309, 686.001 486.996 C 687.402 481.793, 686.783 480, 683.588 480 C 682.194 480, 680.460 479.067, 679.617 477.863 L 678.120 475.726 668.358 477.982 C 659.956 479.923, 657.928 480.813, 653.807 484.369 C 645.033 491.938, 631.223 499.074, 620.500 501.581 C 618.083 502.145, 620.416 502.900, 632.500 505.464 C 649.784 509.132, 650.097 508.135, 629.024 516.542 L 614.549 522.317 606.024 520.596 C 601.336 519.649, 585.894 516.116, 571.708 512.745 L 545.917 506.616 535.764 509.079 C 525.929 511.466, 525.548 511.663, 523.556 515.375 C 520.648 520.794, 515.158 523.278, 496.879 527.442 C 477.495 531.857, 472.659 532.006, 468.794 528.302 C 466.040 525.664, 465.850 525.631, 460.239 526.802 C 457.082 527.460, 452.860 528.457, 450.855 529.017 L 447.211 530.036 449.549 536.768 C 451.927 543.614, 455.712 552.862, 460.400 563.279 C 461.830 566.457, 463 569.214, 463 569.406 C 463 570.401, 438.835 574.235, 437.976 573.376 C 437.446 572.846, 434.478 566.132, 431.381 558.456 C 428.283 550.780, 425.650 544.382, 425.530 544.239 C 425.409 544.095, 419.728 545.300, 412.905 546.917 C 404.092 549.006, 399.124 549.696, 395.746 549.298 C 391.832 548.838, 390.331 549.164, 387.246 551.144 C 377.114 557.649, 364.714 562.143, 351.707 564.023 C 343.960 565.143, 333.474 563.909, 325.674 560.959 L 320.847 559.134 319.611 562.074 C 318.931 563.691, 316.603 566.307, 314.437 567.887 C 310.453 570.795, 303.780 572.661, 267.500 581.018 C 259.800 582.791, 252.418 584.548, 251.096 584.922 C 249.436 585.392, 253.152 586.361, 263.096 588.051 C 276.708 590.365, 279.645 590.499, 316.500 590.476 C 352.884 590.453, 356.976 590.268, 377.500 587.716 C 439.417 580.017, 493.985 567.445, 560 545.671 C 585.993 537.098, 632.545 519.548, 649.500 511.930 C 700.418 489.051, 719.808 479.674, 746.753 464.901 C 762.313 456.370, 762.918 456, 761.333 456 C 760.783 456, 760.119 456.214, 759.857 456.476 M 376.872 482.783 C 375.315 484.393, 369.334 487.474, 362.191 490.345 C 348.074 496.019, 342.581 500.128, 340.935 506.243 C 337.758 518.039, 346.216 527.992, 358.336 526.720 C 364.889 526.033, 374.176 522.564, 377.938 519.399 C 384.720 513.692, 386.659 503.278, 383.487 489.601 C 382.655 486.013, 382.093 482.524, 382.237 481.848 C 382.737 479.510, 379.490 480.076, 376.872 482.783 M 163.391 516 C 163.672 522.593, 164.476 526.367, 166.975 532.818 C 168.748 537.393, 170.414 540.920, 170.678 540.656 C 170.942 540.392, 169.720 534.174, 167.963 526.838 C 163.156 506.763, 162.981 506.350, 163.391 516 M 697.500 516.023 C 694.200 517.613, 687.563 520.747, 682.750 522.986 C 677.938 525.225, 674 527.675, 674 528.430 C 674 529.185, 672.013 534.909, 669.585 541.151 C 647.612 597.638, 619.607 634.968, 588.689 648.987 C 577.804 653.923, 571.408 655.322, 559.994 655.266 C 548.041 655.206, 538.582 652.645, 527 646.332 C 511.880 638.090, 493.681 620.018, 480.852 600.505 C 477.328 595.145, 476.129 594.006, 474.504 594.482 C 472.809 594.978, 453 599, 452.252 599 C 450.936 599, 453.123 603.331, 458.989 612.343 C 483.410 649.859, 512.439 672.667, 543.408 678.671 C 588.778 687.466, 632.782 661.108, 666.673 604.836 C 673.410 593.649, 685.857 568.534, 689.862 558.046 C 694.423 546.101, 701.775 524.907, 702.996 520.187 C 703.609 517.816, 704.359 515.228, 704.662 514.437 C 705.420 512.464, 704.429 512.683, 697.500 516.023" stroke="none" fill="#05b454" fill-rule="evenodd"/></svg>